<svg xmlns="http://www.w3.org/2000/svg" viewBox="0 0 57.22 13.69">
  <title>artprice</title>
  <g>
    <path d="M16.32,4.87l0.32,0.32c0,0.75,0,1.5,0,2.25a11,11,0,0,0,.25,2.44c0.36,1.27,2.07,1.83,3.57,1.28,0.85-.31.91-0.66,0.25-2a2.23,2.23,0,0,1-1.31-.92,18.4,18.4,0,0,1-.06-3.13L20.81,5V3.09L19.49,3C19.34,2.21,19.43,1.17,19,.9S17.53,0.81,16.73.81L16.6,3a2.9,2.9,0,0,1-1.23.12,2.53,2.53,0,0,0-3.07.53C11.53,2.45,10.48,3.28,9.57,3v8h2.6c0-1.57,0-3.07,0-4.57a1.55,1.55,0,0,1,.68-1,1.08,1.08,0,0,1,.91.19,2.15,2.15,0,0,1,.44.76Zm8.37,5.81c2.56,0.93,4.17.63,5.2-.93a5.24,5.24,0,0,0-.29-5.69,3.88,3.88,0,0,0-4.93-.49C23.93,2.53,22.93,3.24,22,3V13.69h2.67v-3Zm-16.14.5V2.92c-1,.46-2.17-0.62-2.76.83-1.72-1.14-3.42-1-4.68.32A4.76,4.76,0,0,0,.94,10c1.22,1.48,3.06,1.65,5,.46C6.55,11.78,7.66,10.79,8.55,11.18ZM37.64,11H40.3V3c-1,.25-2-0.48-2.81.54-1.32-1-2-1-3.59,0-0.84-.93-1.84-0.32-2.75-0.46v8H33.7c0-.26,0-0.46,0-0.66,0-1.3-.05-2.61,0-3.9a1.36,1.36,0,0,1,.75-1,2.07,2.07,0,0,1,1.07.61,1.5,1.5,0,0,1,.27.42l1.75-1.67V11ZM52,7.73c1.49,0,2.89,0,4.29,0a1.06,1.06,0,0,0,.82-0.46c0.4-2.52-1-4.16-3-4.41a4.06,4.06,0,0,0-4.33,2.27,4.64,4.64,0,0,0,1.11,5.36,4.6,4.6,0,0,0,5.2.17,0.92,0.92,0,0,0,.21-0.86,9.28,9.28,0,0,0-1-1.38C53.65,9.65,52.42,9.41,52,7.73ZM49.18,8.92c-0.55-.25-1-0.46-1.53-0.71a0.84,0.84,0,0,0-1.15.18,1.69,1.69,0,0,1-2.32,0A1.94,1.94,0,0,1,44.08,6a1.81,1.81,0,0,1,2.34-.27,1.53,1.53,0,0,0,.93.35,11.74,11.74,0,0,0,1.76-.72c-0.61-1.88-2.25-2.77-4.46-2.49A4.12,4.12,0,0,0,41.1,6.76a4,4,0,0,0,3,4.47A4.12,4.12,0,0,0,49.18,8.92ZM37.73,0V2h2.54V0H37.73Z" fill="#fff"/>
    <path d="M16.32,4.87L14.23,6.43a2.15,2.15,0,0,0-.44-0.76,1.08,1.08,0,0,0-.91-0.19,1.55,1.55,0,0,0-.68,1c-0.07,1.5,0,3,0,4.57H9.57V3c0.91,0.26,2-.57,2.73.61a2.53,2.53,0,0,1,3.07-.53A2.9,2.9,0,0,0,16.6,3l0.13-2.16c0.8,0,1.74-.26,2.29.09s0.33,1.32.47,2.07l1.32,0.12V5l-1.46.12a18.4,18.4,0,0,0,.06,3.13,2.23,2.23,0,0,0,1.31.92c0.66,1.34.6,1.69-.25,2-1.51.55-3.21,0-3.57-1.28a11,11,0,0,1-.25-2.44c0-.75,0-1.5,0-2.25Z" fill="#1d1d1b" fill-rule="evenodd"/>
    <path d="M24.69,10.67v3H22V3c0.91,0.22,1.91-.49,2.65.55a3.88,3.88,0,0,1,4.93.49,5.24,5.24,0,0,1,.29,5.69C28.86,11.3,27.25,11.61,24.69,10.67Zm1.66-1.84a1.6,1.6,0,0,0,1.59-1.75,1.63,1.63,0,1,0-3.26.06A1.62,1.62,0,0,0,26.35,8.83Z" fill="#1d1d1b" fill-rule="evenodd"/>
    <path d="M5.79,3.75c-1.72-1.14-3.42-1-4.68.32A4.76,4.76,0,0,0,.94,10c1.22,1.48,3.06,1.65,5,.46,0.57,1.35,1.69.36,2.58,0.74V2.92C7.59,3.38,6.38,2.3,5.79,3.75ZM4.28,8.81A1.58,1.58,0,0,1,2.65,7.1,1.62,1.62,0,0,1,4.3,5.38,1.66,1.66,0,0,1,5.95,7.12,1.6,1.6,0,0,1,4.28,8.81Z" fill="#1d1d1b" fill-rule="evenodd"/>
    <path d="M37.64,11V4.83L35.89,6.5a1.5,1.5,0,0,0-.27-0.42,2.07,2.07,0,0,0-1.07-.61,1.36,1.36,0,0,0-.75,1c-0.09,1.29,0,2.6,0,3.9,0,0.2,0,.4,0,0.66H31.15v-8c0.91,0.14,1.9-.47,2.75.46,1.57-1,2.27-1,3.59,0,0.8-1,1.84-.29,2.81-0.54v8H37.64Z" fill="#1d1d1b" fill-rule="evenodd"/>
    <path d="M54.11,2.85a4.06,4.06,0,0,0-4.33,2.27,4.64,4.64,0,0,0,1.11,5.36,4.6,4.6,0,0,0,5.2.17,0.92,0.92,0,0,0,.21-0.86,9.28,9.28,0,0,0-1-1.38c-1.68,1.24-2.91,1-3.29-.68,1.49,0,2.89,0,4.29,0a1.06,1.06,0,0,0,.82-0.46C57.56,4.74,56.14,3.1,54.11,2.85ZM52.06,6.33A1.27,1.27,0,0,1,53.41,5a1.26,1.26,0,0,1,1.31,1.37H52.06Z" fill="#1d1d1b" fill-rule="evenodd"/>
    <path d="M49.18,8.92a4.12,4.12,0,0,1-5.13,2.32,4,4,0,0,1-3-4.47,4.12,4.12,0,0,1,3.55-3.93c2.21-.28,3.85.61,4.46,2.49A11.74,11.74,0,0,1,47.35,6a1.53,1.53,0,0,1-.93-0.35A1.81,1.81,0,0,0,44.08,6a1.94,1.94,0,0,0,.1,2.37,1.69,1.69,0,0,0,2.32,0,0.84,0.84,0,0,1,1.15-.18C48.14,8.45,48.64,8.67,49.18,8.92Z" fill="#1d1d1b" fill-rule="evenodd"/>
    <path d="M37.73,0h2.54V2H37.73V0Z" fill="#1d1d1b" fill-rule="evenodd"/>
  </g>
</svg>
