<svg xmlns="http://www.w3.org/2000/svg" viewBox="0 0 17.03 26.26">
  <title>map</title>
  <g>
    <path d="M8.53,0A7.77,7.77,0,0,0,.75,7.78,8.6,8.6,0,0,0,.9,9.28a6.72,6.72,0,0,0,.21.83c1.38,4.69,7,10.52,7.22,10.79a0.29,0.29,0,0,0,.41,0C9,20.66,14.57,14.79,16,10.11c0.09-.27.15-0.56,0.21-0.83a8.69,8.69,0,0,0,.15-1.5A7.77,7.77,0,0,0,8.53,0Zm0,11.61a3.83,3.83,0,1,1,3.83-3.83A3.82,3.82,0,0,1,8.53,11.61Z" fill="#717070"/>
    <path d="M15.57,21.16A0.18,0.18,0,0,0,15.48,21l-2-1.91a0.29,0.29,0,0,0-.41.41l2,1.86,1.24,3.92-3.36-1.77a0.29,0.29,0,0,0-.27,0l-4.1,2.06-4.1-2a0.39,0.39,0,0,0-.27,0L0.81,25.34,2,21.42l2-1.86a0.28,0.28,0,0,0,0-.41,0.29,0.29,0,0,0-.41,0l-2,1.92-0.09.12L0,25.88a0.33,0.33,0,0,0,.09.32,0.22,0.22,0,0,0,.18.06,0.27,0.27,0,0,0,.15,0l3.86-2,4.1,2a0.41,0.41,0,0,0,.27,0l4.1-2,3.86,2a0.32,0.32,0,0,0,.32,0A0.33,0.33,0,0,0,17,25.88Z" fill="#717070"/>
  </g>
</svg>
