<svg xmlns="http://www.w3.org/2000/svg" viewBox="0 0 52.97 38.21">
  <title>mda</title>
  <g>
    <path d="M27.5,27.78c0.31-.13.32-0.28,0-0.49a2.82,2.82,0,0,0-2-.26A2.4,2.4,0,0,1,24,26.9c0.68-.25,1.23-0.47,1.79-0.66a16.64,16.64,0,0,0,1.85-.58A0.91,0.91,0,0,0,28,24.84a4.35,4.35,0,0,0-1-1.35,6.67,6.67,0,0,0-1.72-1c-1-.4-2-0.71-3-1A17.4,17.4,0,0,0,20.41,21c-0.31-.06-0.68,0-0.77-0.41a0.85,0.85,0,0,1,.46-1,1.72,1.72,0,0,0,.57-0.39,2.52,2.52,0,0,1,2.93-1.09A1.65,1.65,0,0,0,24.27,18a3.49,3.49,0,0,0-.41-0.53c-0.14-.13-0.36-0.16-0.51-0.29A0.8,0.8,0,0,1,23,16.73a12.58,12.58,0,0,1,0-3.7c0.17-.65.21-1.34,0.34-2,0.07-.35.32-0.41,0.62-0.25,0.55,0.28,1.11.55,1.63,0.87a4.19,4.19,0,0,1,.78.7,4.11,4.11,0,0,1,.87,2.39,1,1,0,0,1-.87,1.1,11.77,11.77,0,0,1-2.24,0,0.78,0.78,0,0,0-1,.39,4.37,4.37,0,0,0,4.31-.11,0.81,0.81,0,0,1,1.23.28,2.54,2.54,0,0,0,1.4,1.07l1.25,0.38a8.66,8.66,0,0,1-1.55.56c-0.8.24-1.6,0.46-2.38,0.73-0.22.08-.56,0.27-0.36,0.59a0.53,0.53,0,0,0,.81.23,1.4,1.4,0,0,1,.43-0.21c1.54-.4,3.06-0.88,4.61-1.16,2.19-.38,4.41-0.61,6.61-0.89a11.28,11.28,0,0,1,2-.16c1.49,0.07,3,.23,4.46.35A8.11,8.11,0,0,1,50.27,19a0.89,0.89,0,0,0,1.22-.22,3.12,3.12,0,0,0,.43-0.46,2.36,2.36,0,0,0-1.65-1,40.87,40.87,0,0,0-5.05-.74,41.68,41.68,0,0,0-12.51,1.11,1.74,1.74,0,0,1-.56-0.05,0.71,0.71,0,0,1,.09-0.23c0.08-.07.19-0.11,0.27-0.17a3.5,3.5,0,0,0,1.68-2.24,30.92,30.92,0,0,0,.2-3.7,2.91,2.91,0,0,0-.28-1.29A22.66,22.66,0,0,0,32.86,8a1.22,1.22,0,0,0-1.49-.46,2.69,2.69,0,0,0-.72.57,24.37,24.37,0,0,0-1.34,2.42c-0.36.77-.62,1.58-0.93,2.37a0.88,0.88,0,0,1-.21.17c-0.14-.2-0.27-0.39-0.41-0.57a8.67,8.67,0,0,0-1-1.16c-0.34-.3-0.8-0.45-1.17-0.71a0.71,0.71,0,0,1,0-1.17c0.23-.2.46-0.4,0.7-0.59a1.12,1.12,0,0,1,1.59-.13c0.43,0.31.53,0,.69-0.18a7,7,0,0,0-.46-0.63,0.94,0.94,0,0,0-1-.45,7.61,7.61,0,0,0-2.06,1.08c-0.6.51-1,.77-1.68,0.17A0.9,0.9,0,0,0,22.19,9c-0.07.52,0,1.05-.07,1.58a2.26,2.26,0,0,1,0,.3,17.89,17.89,0,0,0-.35,1.9c-0.11,1.43-.16,2.87-0.21,4.31a0.65,0.65,0,0,1-.53.75,1,1,0,0,1-.77-0.5c-0.4-1-.71-2.05-1-3.09-0.09-.29.06-0.43,0.35-0.46a5.91,5.91,0,0,0,.93-0.18,0.78,0.78,0,0,0,.09-0.36l-1-.16A1.27,1.27,0,0,1,19,13a5.4,5.4,0,0,1-.61-2.57c0-.29.28-0.57,0.28-0.85a0.58,0.58,0,0,1,.71-0.65,2.72,2.72,0,0,0,.7,0A9.29,9.29,0,0,0,21,8.5l0-.27A2.86,2.86,0,0,0,20.07,8c-0.63,0-1.25.19-1.88,0.27a0.46,0.46,0,0,1-.39-0.18,10.52,10.52,0,0,1-.49-1.86C17.11,4.64,17,3,16.85,1.46A4.92,4.92,0,0,1,17,.6a0.74,0.74,0,0,0,0-.47A0.8,0.8,0,0,0,16.3,0a5.55,5.55,0,0,0-1,1.14,14.34,14.34,0,0,0-.77,1.52c-0.74,1.5-1.48,3-2.23,4.48a0.77,0.77,0,0,1-.33.4A13.87,13.87,0,0,1,10,8c-0.57.08-.61,0-0.42-0.57a6.93,6.93,0,0,0,.23-1.1,4.21,4.21,0,0,1,.06-0.48c0.23-.75.44-1.5,0.71-2.24s0.62-1.5.92-2.25a0.52,0.52,0,0,0,.07-0.33A2,2,0,0,0,10.88.57,0.79,0.79,0,0,0,10.4,1c-0.38.87-.74,1.74-1,2.64C9.18,4.14,9.14,4.69,9,5.21c-0.2.8-.48,1.58-0.65,2.38a1.29,1.29,0,0,1-.84,1.06,1.11,1.11,0,0,0-.8,1.13,2.24,2.24,0,0,1-.12.79c-0.41.84-.84,1.66-1.3,2.48-0.7,1.26-1.44,2.5-2.15,3.75q-0.27.47-.5,0.95a1.52,1.52,0,0,0-.08.34,0.76,0.76,0,0,0,.4,0,1.53,1.53,0,0,0,.43-0.47C4.12,16.43,4.82,15.2,5.53,14A3.34,3.34,0,0,1,6,13.37a0.54,0.54,0,0,1,.4-0.18,0.48,0.48,0,0,1,.2.37c0,0.41,0,.83,0,1.24a4.06,4.06,0,0,1-.39,2.76,0.36,0.36,0,0,0,0,.3c0.21,0.37,0,.54-0.29.7S5.3,19,4.91,19.24a2.13,2.13,0,0,1,.52.36,0.85,0.85,0,0,1,.35.76c-0.24,1.25-.42,2.51-0.55,3.78-0.07.68,0,1.37-.87,1.55a0.2,0.2,0,0,0-.13.08,1,1,0,0,0,0,.52,0.7,0.7,0,0,1,.28,1.09C4,28.49,3.46,29.59,2.94,30.72A2.3,2.3,0,0,1,1.7,32.1a0.48,0.48,0,0,0-.28.77,1.24,1.24,0,0,1-.15.75,2.11,2.11,0,0,1-.26.32c-0.29.49-.57,1-0.87,1.47a0.53,0.53,0,0,0,.27.89,1.07,1.07,0,0,0,1.08-.66,11.38,11.38,0,0,1,.76-1.92,1.62,1.62,0,0,1,.91-0.83,32.16,32.16,0,0,1,3.49-.21A0.6,0.6,0,0,1,7.1,33c0.3,1,.55,1.92.84,2.88a1.08,1.08,0,0,0,1.25.58c0.32-.16.61-0.36,0.92-0.54l-0.1-.1A6,6,0,0,0,10.15,35c0-.89.39-1.11,1.18-0.7a6.69,6.69,0,0,0,.84.47c0.81,0.28,1.63.53,2.45,0.78L20.3,37.2c1.14,0.33,2.27.68,3.41,1a1.85,1.85,0,0,0,.68-0.09V37.91a5.79,5.79,0,0,0-1-.54c-0.93-.29-1.88-0.5-2.82-0.78-1.79-.53-3.58-1.06-5.35-1.64a13.41,13.41,0,0,1-3.73-1.48,5.9,5.9,0,0,1-.79-0.63c-0.18-.18-0.17-0.43.13-0.48a10.83,10.83,0,0,1,1.53-.14A9.78,9.78,0,0,0,17,31.15a1,1,0,0,0,.46-1.39c-0.44-.6-0.85-1.22-1.25-1.85a0.58,0.58,0,0,1-.1-0.44,0.5,0.5,0,0,1,.36-0.23,1.1,1.1,0,0,1,1,.34,1.46,1.46,0,0,0,1.57.57c0.3-.1.43,0.09,0.41,0.38,0,0.52-.07,1-0.13,1.56-0.17,1.61-.35,3.21-0.5,4.82-0.05.55,0.19,0.87,0.57,0.86a0.9,0.9,0,0,0,.8-0.85c0.1-1.18.16-2.37,0.36-3.53a5.73,5.73,0,0,1,.84-2.91A1.09,1.09,0,0,1,22,28.1C23.19,28,24.34,28,25.49,28c0.33,0,.43.09,0.37,0.45-0.23,1.34-.44,2.69-0.62,4-0.11.79-.15,1.59-0.22,2.38a0.88,0.88,0,0,0,1.19-.94c0.06-.95.14-1.9,0.29-2.83s0.42-1.73.56-2.6A0.75,0.75,0,0,1,27.5,27.78Zm2-13.33A9.86,9.86,0,0,1,30.84,10a3.6,3.6,0,0,1,.88-1,0.65,0.65,0,0,1,1,.38,9,9,0,0,1,.5,5,4.25,4.25,0,0,1-.65,1.69,1.7,1.7,0,0,1-2.46.13A2.36,2.36,0,0,1,29.54,14.45Zm-11.45-.08c0.55,1.17,1.07,2.37,1.6,3.55,0.22,0.49.07,0.79-.48,0.84-0.87.07-1.75,0.11-2.63,0.16V18.87c-0.59,0-1.19,0-1.78,0a5.73,5.73,0,0,1-.73-0.21,0.67,0.67,0,0,0-.45,0,4.94,4.94,0,0,0-.4.43,1.4,1.4,0,0,1-.37.16,2,2,0,0,1-.14-0.36,1,1,0,0,1,.55-1.09A2.39,2.39,0,0,0,14,17c0.47-.78.9-1.59,1.36-2.38a0.54,0.54,0,0,1,.31-0.26c0.65-.11,1.31-0.22,2-0.27A0.62,0.62,0,0,1,18.09,14.37Zm-4,6.29A0.73,0.73,0,0,1,15,19.8c0.95-.07,1.9-0.11,2.85-0.13,0.56,0,.63.15,0.48,0.69a1.27,1.27,0,0,0,.1.67,5.21,5.21,0,0,0,.37.7,25.22,25.22,0,0,1-5.08.44L14,21A0.78,0.78,0,0,0,14.11,20.66ZM17.43,12c0,0.14,0,.28.08,0.42,0.2,0.93,0,1.15-.94,1.16-0.59,0-.74-0.18-0.49-0.69a4.54,4.54,0,0,1,.71-1.11C17.11,11.43,17.34,11.54,17.43,12ZM13,7c0.69-1.34,1.43-2.65,2.18-4a1.73,1.73,0,0,1,.6-0.39,2.82,2.82,0,0,1,.23.6c0.2,1.46.37,2.92,0.59,4.37,0.06,0.39,0,.58-0.41.59s-0.57.06-.86,0.09l0,0.09-1.57-.46a1.66,1.66,0,0,0-.25-0.07C12.72,7.75,12.65,7.7,13,7Zm-1.17,7.34c0-1.42,0-2.83.09-4.25a1,1,0,0,1,.42-0.75,4.16,4.16,0,0,1,1.41-.24c0.69,0,1.39.08,2.08,0s1,0.25.75,0.94S16,11.29,15.67,11.9a2.89,2.89,0,0,0-.21.46A2.07,2.07,0,0,1,13.32,14a5.41,5.41,0,0,0-.73.19,0.89,0.89,0,0,0,1.16.46c0.35-.1.46,0.08,0.4,0.35a3.19,3.19,0,0,1-.33.89c-0.2.37-.46,0.71-0.7,1.05s-0.5.35-.68,0a5.15,5.15,0,0,1-.26-0.81c-0.12-.42-0.26-0.84-0.36-1.27A2.18,2.18,0,0,1,11.84,14.34ZM10.33,12l0.14,0.09c0,0.51,0,1,.09,1.53,0.19,1.31.44,2.61,0.63,3.92a5.74,5.74,0,0,1,0,1.18c0,0.37-.17.46-0.57,0.28a11.27,11.27,0,0,0-2-.69,0.79,0.79,0,0,1-.71-0.89,5.81,5.81,0,0,1,1-3.29c0.31-.5.55-1,0.87-1.55A3.59,3.59,0,0,1,10.33,12Zm-2.68.69a4.43,4.43,0,0,1,.46-2.48,3.59,3.59,0,0,0,.12-0.83c0.08-.25.14-0.8,0.58-0.19a0.8,0.8,0,0,0,.5.08c0.52,0,.72.24,0.52,0.7-0.46,1-1,2-1.45,3-0.13.27-.25,0.55-0.37,0.83l-0.26,0A6.84,6.84,0,0,1,7.65,12.72Zm-2.06,19a12.19,12.19,0,0,0-1.38.12c-0.32,0-.44-0.07-0.39-0.38a0.68,0.68,0,0,1,0-.26,6.18,6.18,0,0,1,2-2.44,2.56,2.56,0,0,1,.66,1.64c0,0.11,0,.21,0,0.32C6.62,31.7,6.62,31.69,5.58,31.71Zm0.67-7c0.25-1.28.46-2.58,0.77-3.84a2.35,2.35,0,0,1,2-1.61,1.77,1.77,0,0,1,.81.25c0.66,0.44,1.28.95,1.94,1.4a1.17,1.17,0,0,1,.5,1.45,5.93,5.93,0,0,1-.5,1.35c-0.57.92-1.61,1.08-2.53,1.39-0.62.21-1.26,0.33-1.89,0.51S6.33,25.47,6.25,24.72ZM9.11,34.84c-0.75-.36-0.53-0.95-0.64-1.42a0.79,0.79,0,0,1,.43-0.2,0.49,0.49,0,0,1,.36.19C9.24,33.88,9.17,34.36,9.11,34.84Zm1.27-7.57c-0.18.73-.29,1.48-0.42,2.22S9.74,31,9.63,31.72a0.45,0.45,0,0,1-.05.2,2.49,2.49,0,0,1-.81.05C8.47,31.91,8,32,8,31.51Q7.64,29.36,7.3,27.2c-0.12-.76,0-0.87.76-1.06,0.91-.23,1.78-0.58,2.67-0.88,0.22-.08.43-0.19,0.64-0.27,0.64-.24.76-0.16,0.8,0.52a4.56,4.56,0,0,1-.17.72,0.4,0.4,0,0,1-.33.17A1,1,0,0,0,10.38,27.26ZM16.2,30c0.27,0.77,0,1.13-.88,1.22-1,.12-2,0.18-3.06.29-0.28,0-.55.13-0.83,0.18s-0.68,0-.61-0.48a19.83,19.83,0,0,0,.5-2.31c0.11-1.12.42-1.28,1.6-1.42a2.76,2.76,0,0,1,.54,0,1.83,1.83,0,0,1,1.71.75A11.77,11.77,0,0,1,16.2,30Zm4.65-3.46a2.64,2.64,0,0,1-.66-0.18,1.75,1.75,0,0,0-.88-0.13,7.79,7.79,0,0,1-3.13.16c-0.8,0-1.61-.14-2.42-0.17-0.46,0-.57-0.18-0.46-0.6A4.31,4.31,0,0,0,13.38,25l-0.13,0a10.67,10.67,0,0,0,.31-1.33,0.65,0.65,0,0,1,.79-0.6c1.32-.1,2.65-0.19,4-0.33A1.56,1.56,0,0,0,19.68,22a0.53,0.53,0,0,1,.43-0.11,17.86,17.86,0,0,1,3,.49,16.61,16.61,0,0,1,2.71,1.33,0.65,0.65,0,0,1,.23.93,2.27,2.27,0,0,1-2,1.62C22.94,26.34,21.9,26.46,20.85,26.54Z" fill="#1d1d1b"/>
    <path d="M50.71,30a2.72,2.72,0,0,0-.61-0.31c-0.68-.39-1.38-0.75-2-1.18a0.49,0.49,0,0,1,0-.88,9.54,9.54,0,0,1,1.53-.67,0.32,0.32,0,0,1,.28.12c0.4,0.78.68,0.26,1-.08a1.2,1.2,0,0,0,.26-0.33,0.66,0.66,0,0,0,0-.5,0.74,0.74,0,0,0-.55-0.3c-0.74.22-1.47,0.51-2.18,0.8a4,4,0,0,1-2.13.36,14.76,14.76,0,0,0-2-.08c-0.41,0-.82.07-1.23,0.06a20.63,20.63,0,0,0-5.33.65,1,1,0,0,0-.5.65c-0.18.58-.28,1.19-0.42,1.79-0.23.95-.5,1.89-0.7,2.84a0.68,0.68,0,0,1-.85.64c0.07-.76.09-1.49,0.21-2.2,0.2-1.22.48-2.42,0.68-3.64,0.12-.73.14-0.79,0.88-0.88,1.09-.13,2.17-0.27,3.26-0.42s1-.22.77-1.08l0.59,0c1.57-.14,3.15-0.24,4.72-0.44,0.77-.1,1.5-0.46,2.27-0.57a3.76,3.76,0,0,0,1.63-.59,0.5,0.5,0,0,0,.21-0.4A0.66,0.66,0,0,0,50.09,23a0.73,0.73,0,0,0-.37.06c-1.12.27-2.24,0.6-3.38,0.8a31.25,31.25,0,0,1-3.93.51,46.58,46.58,0,0,1-9.46-.54A28.56,28.56,0,0,1,29,23a1,1,0,0,0-1.14.35,1.1,1.1,0,0,0,1.18.4,1.28,1.28,0,0,1,.32,0l2.23,0.38a40.77,40.77,0,0,0,7.62,1,4.12,4.12,0,0,1,.92.19v0.19a3.14,3.14,0,0,1-.59.16c-1.4.09-2.8,0.13-4.2,0.25-0.69.06-1.36,0.25-2,.36a0.87,0.87,0,0,1-.59-0.08,1.36,1.36,0,0,0-1.42-.18,6.3,6.3,0,0,0-2.88,2.2,0.37,0.37,0,0,0,0,.35c0.77,0.77,1.53,1.54,2.33,2.28a3.12,3.12,0,0,1,.74,2.67,0.73,0.73,0,0,1-.33.45,9.54,9.54,0,0,1-2-.18,4.71,4.71,0,0,1-1.14-.66,0.91,0.91,0,0,0-.88.46,0.6,0.6,0,0,0,.32.44c0.48,0.23,1,.36,1.49.59a4,4,0,0,0,2.37.28,2,2,0,0,0,1.12-.55,2.44,2.44,0,0,0,.21-2.83,7.67,7.67,0,0,0-1.83-2.16,3.79,3.79,0,0,1-.64-0.77,0.29,0.29,0,0,1,0-.25A2.25,2.25,0,0,1,32,27.52a1.75,1.75,0,0,0,1.51-.33,1.36,1.36,0,0,1,1,0,0.82,0.82,0,0,1,.21.63c0,0.7-.09,1.4-0.17,2.09-0.15,1.38-.33,2.75-0.45,4.12a2.55,2.55,0,0,0,.24.82l0.47-.32a0.66,0.66,0,0,1,1.14.43,0.78,0.78,0,0,0,.39.4,1,1,0,0,0,.53-0.5,0.68,0.68,0,0,1,.81-0.71c1.74-.11,3.48-0.2,5.22-0.37a20.58,20.58,0,0,0,2.7-.47c0.26-.06.77-0.07,0.64-0.52a1.18,1.18,0,0,0-.9-0.17,15.4,15.4,0,0,1-3.46.4c-0.55,0-1.11.13-1.66,0.15-1,0-2,0-3.12,0,0.18-.72.32-1.39,0.53-2.05A0.65,0.65,0,0,1,38,30.84c0.82-.14,1.65-0.29,2.49-0.35,1.77-.14,3.55-0.21,5.32-0.35a2.42,2.42,0,0,0,.75-0.36,1.16,1.16,0,0,0-1.26-.5c-1.15.08-2.31,0.12-3.47,0.2s-2,.21-3,0.28a2.12,2.12,0,0,1-.7-0.21,1.5,1.5,0,0,1,.4-0.67,19.82,19.82,0,0,1,2.73-.61A13.48,13.48,0,0,1,45.76,28a1.15,1.15,0,0,1,.52.28A3.55,3.55,0,0,0,47,29a10.33,10.33,0,0,1,2.76,1.51c0.52,0.46,1.06.89,1.59,1.33A0.61,0.61,0,0,1,51.18,33a9.26,9.26,0,0,1-2,.43,1.4,1.4,0,0,1-1.67-1.55A1.37,1.37,0,0,0,47,31.09a0.77,0.77,0,0,0-.59.32,1.82,1.82,0,0,0,0,1.16c0.38,0.74,1.68,1.83,2.74,1.61,0.67-.14,1.35-0.27,2-0.46A2.49,2.49,0,0,0,53,32.33C52.25,31.57,51.49,30.75,50.71,30Z" fill="#1d1d1b"/>
    <path d="M48.2,19.38a13.29,13.29,0,0,0-4.39-.49,53.35,53.35,0,0,0-9,.76,24.56,24.56,0,0,0-3.09.66c-0.79.21-1.54,0.58-2.33,0.8a3,3,0,0,1-2.28.06,0.7,0.7,0,0,0-.56.28,0.62,0.62,0,0,0,0,.56,2.93,2.93,0,0,0,1.46.52,3.2,3.2,0,0,1,1.33.12,45.61,45.61,0,0,0,9.73,1.46c1.27-.13,2.55-0.17,3.79-0.42,1.71-.34,3.38-0.87,5.08-1.27a8.68,8.68,0,0,1,2.62-.52,1.47,1.47,0,0,0,.9-0.58c0.47-.53.41-0.76-0.25-1C50.26,20,49.2,19.76,48.2,19.38ZM36.91,23.13l-4.85-.63c-0.51-.07-1-0.1-1.54-0.18a1.28,1.28,0,0,1-.4-0.26,1,1,0,0,1,.33-0.3c1.1-.29,2.2-0.58,3.32-0.81,0.92-.19,1.86-0.32,2.79-0.45a3,3,0,0,1,.85,0,0.37,0.37,0,0,1,.24.23,10.55,10.55,0,0,1,.2,1.32C37.91,23.09,37.9,23.09,36.91,23.13Zm9.46-1.44c-0.49.16-1,.35-1.45,0.52a1.34,1.34,0,0,1-.41.11c-0.44,0-.92.13-1.08-0.51-0.09-.36-0.33-0.69-0.4-1.06a0.54,0.54,0,0,1,.63-0.63,11.82,11.82,0,0,1,1.82.11c0.82,0.13,1.63.33,2.45,0.51a1.08,1.08,0,0,1,.29.18c0,0.08,0,.15,0,0.23C47.61,21.33,47,21.49,46.37,21.69Z" fill="#1d1d1b"/>
    <path d="M34.79,8.47a33.48,33.48,0,0,0,.68,7c0.08,0.52.41,0.62,0.78,0.25a6.61,6.61,0,0,0,.64-0.9H36.73a5.66,5.66,0,0,1-.35-0.87c-0.1-.44-0.1-0.89-0.2-1.33A9.21,9.21,0,0,1,36,10.16a0.49,0.49,0,0,1,.26-0.38,0.77,0.77,0,0,1,.43.24c0.16,0.14.28,0.32,0.44,0.46l2.47,2.06c0.86,0.72,1.8,1.37,1.82,2.68,0,0.4.32,0.44,0.63,0.3a0.58,0.58,0,0,0,.45-0.82,0.83,0.83,0,0,1,0-.58,3.13,3.13,0,0,0-.14-2.2,9.42,9.42,0,0,1-.48-2.18c0-1.32.13-2.65,0.19-4a0.92,0.92,0,0,0-.15-0.52A1.06,1.06,0,0,0,40.67,5a1.25,1.25,0,0,0-.4.79,2.1,2.1,0,0,0,0,.8c0.14,1.07.32,2.13,0.47,3.2,0.11,0.75.2,1.5,0.29,2.25l-0.17.09a3.16,3.16,0,0,1-.53-0.29,8.3,8.3,0,0,1-1.35-1.09c-0.87-1.07-1.89-2-2.78-3.07-0.56-.66-1-0.74-1.5-0.18A5.45,5.45,0,0,1,34.79,8.47Z" fill="#1d1d1b"/>
    <path d="M24.38,5.23a1,1,0,0,0-1.13-.62,0.71,0.71,0,0,0-.41.29,0.54,0.54,0,0,0,.18.38C23.51,5.77,23.69,5.76,24.38,5.23Z" fill="#1d1d1b"/>
  </g>
</svg>
